<?xml version="1.0" encoding="UTF-8"?>
<!DOCTYPE svg PUBLIC "-//W3C//DTD SVG 1.1//EN" "http://www.w3.org/Graphics/SVG/1.1/DTD/svg11.dtd">
<!-- Creator: CorelDRAW -->
<svg xmlns="http://www.w3.org/2000/svg" xml:space="preserve" width="489.432mm" height="257.989mm" version="1.1" style="shape-rendering:geometricPrecision; text-rendering:geometricPrecision; image-rendering:optimizeQuality; fill-rule:evenodd; clip-rule:evenodd"
viewBox="0 0 6296.14 3318.81"
 xmlns:xlink="http://www.w3.org/1999/xlink"
 xmlns:xodm="http://www.corel.com/coreldraw/odm/2003">
 <defs>
  <style type="text/css">
   <![CDATA[
    .str3 {stroke:#5F5D5D;stroke-width:2.57;stroke-miterlimit:22.9256}
    .str0 {stroke:#474443;stroke-width:2.57;stroke-miterlimit:22.9256}
    .str2 {stroke:#5F5D5D;stroke-width:0.98;stroke-miterlimit:22.9256}
    .str1 {stroke:#332C2B;stroke-width:0.98;stroke-miterlimit:22.9256}
    .fil0 {fill:#5F5D5D}
    .fil1 {fill:#474443}
    .fil2 {fill:#E3A43B}
   ]]>
  </style>
 </defs>
 <g id="Layer_x0020_1">
  <metadata id="CorelCorpID_0Corel-Layer"/>
  <path class="fil0 str0" d="M1544.73 1178.09c-44.27,55.26 -68.79,228.78 -87.82,306.56 -90.9,371.68 -92.27,329.88 230.18,468.76 40.11,17.28 97.31,39.32 135.12,60.51 45.34,25.4 88.86,38.71 139.89,65.9 215.47,114.81 934.49,406.53 1225.54,364.44 274.95,-39.76 674.18,-155.23 917.23,-278.22l542.67 -249.02c259.06,-105.37 233.44,-122.3 119.74,-541.99 -13.27,-48.98 -30.15,-107.17 -41.7,-154.52 -11.53,-47.25 -24.24,-126.21 -52.68,-165.8 -15.97,60.39 14.56,122.01 31.67,183.2l-23.19 -27.63c-4.29,-5.56 -4.63,-7.13 -8.47,-13.07 -159.82,-8.87 -669.83,46.78 -816.19,83.12l-90.48 22.75c-80.92,17.01 -127.53,-5.95 -230.83,25.91l-220.27 38.65c-30.4,1.05 -62.67,0.53 -93.35,0.53 -0.14,0.21 -14.13,17.46 -15.9,20.31 -11.78,18.91 -5.82,2.42 -12.73,28.84 -13.64,52.24 16.11,39.87 -22.82,59.98l-11.66 -50.3c-0.83,-14.22 0.48,-31.39 0.8,-44.8l-11.48 -276.56c-23.1,-88.94 4.48,-16.5 -29.07,-50.93l-0.05 585.19c-12.67,-25.31 -8.8,-49.57 -9.24,-84.05 -74.86,31.94 -60.68,-27.04 -60.93,-29.65 -109.55,0 -311.7,11.21 -408.5,-4.7 -74.7,-12.28 -128.1,-4.26 -192.2,2.8 -32.23,3.55 -72.45,-1.07 -101.88,2.14 -96.61,10.5 10.45,15.88 -71.74,29.96 -52.01,8.91 -206.52,-2.51 -257.24,1.73l-34.29 7.01c-2.4,0.73 -4.86,2.08 -7.21,2.84 -10.32,3.31 6.6,1.77 -22.33,7.34l-69.18 1.75c-61.36,-0.69 -146.71,-4.22 -205.9,0.75 -34.67,2.91 -49.1,12.85 -90.39,8.64 -33.67,-3.43 -45.51,-9.2 -95.04,-9.2 -1.3,-2.13 -11.25,-23.26 -12.06,-25.05 -7.37,-16.35 -8.09,-6.8 16.12,-108.18 18.32,-76.72 66.74,-213.37 47.89,-265.93z"/>
  <path class="fil1" d="M1637.35 848.81c-17.01,25.03 -101.4,276.78 -92.62,329.27 18.85,52.56 -29.57,189.22 -47.89,265.93 -24.21,101.38 -23.49,91.83 -16.12,108.18 0.81,1.79 10.75,22.92 12.06,25.05 49.53,0 61.37,5.77 95.04,9.2 41.29,4.2 55.72,-5.73 90.39,-8.64 59.19,-4.97 144.54,-1.44 205.9,-0.75l69.18 -1.75c28.94,-5.57 12.01,-4.03 22.33,-7.34 2.35,-0.76 4.81,-2.11 7.21,-2.84l34.29 -7.01c50.73,-4.24 205.23,7.18 257.24,-1.73 82.19,-14.08 -24.87,-19.46 71.74,-29.96 29.43,-3.2 69.65,1.42 101.88,-2.14 64.11,-7.07 117.51,-15.08 192.2,-2.8 96.8,15.91 298.95,4.7 408.5,4.7 0.25,2.6 -13.93,61.59 60.93,29.65 0.44,34.49 -3.43,58.74 9.24,84.05l0.05 -585.19c33.55,34.43 5.97,-38.02 29.07,50.93l11.48 276.56c-0.32,13.41 -1.63,30.58 -0.8,44.8l11.66 50.3c38.94,-20.1 9.19,-7.74 22.82,-59.98 6.9,-26.43 0.95,-9.93 12.73,-28.84 1.77,-2.85 15.76,-20.1 15.9,-20.31 30.68,0 62.96,0.52 93.35,-0.53l220.27 -38.65c103.3,-31.85 149.92,-8.9 230.83,-25.91l90.48 -22.75c146.36,-36.34 656.37,-91.99 816.19,-83.12 3.84,5.94 4.19,7.5 8.47,13.07l23.19 27.63c-17.11,-61.19 -47.64,-122.81 -31.67,-183.2 12.05,-32.69 -12.18,-74.19 -22.3,-107.94 -12.25,-40.88 -34.74,-100.01 -41.29,-108.24 -14.4,-7.53 -46.02,44.41 -20.23,-32.68l-1089.11 190.87c-111.08,17.08 -256.29,52.81 -381.11,46.5 -122.01,-6.17 -248.29,-31.89 -372.97,-54.01l-718.99 -126.28c-84.4,-15.77 -263.62,-52.22 -348.86,-55.32 -29.42,67.41 11.85,29.25 -40.68,41.22z"/>
  <path class="fil0" d="M155.94 416.51c-46.61,1.75 -109.97,16.87 -143.56,13.82l18.95 9.62c2.57,1.07 21.54,8.72 26.71,10.25 12.06,3.58 28.07,5.48 41.05,7.15l264.26 44.02c112.54,19.11 245.62,43.92 359.78,61.01 79.36,11.89 721,127.51 729.32,117.5 6.92,-8.33 -1.48,-2.22 -2.04,-2.78 -26.6,-26.87 -22.79,18.94 -9.08,-4.27 67.18,5.38 146.84,12.68 195.54,2.95l0.6 -20.04c-0.03,-0.22 -0.89,-1.67 -0.6,-2.47l2994.87 1.91c9.85,24.64 11.81,-22.1 -4.9,6.08 -14.37,24.23 -16.27,-14.2 -5.39,12.02l175.94 1.29c-2.47,1.61 -7.03,-0.02 -8.11,3.54 -9.35,30.82 -46.39,-39.79 -23.74,20.77 53.16,-12.95 113.74,-18.72 175.71,-29.75 68.39,-12.17 119.08,-25.84 182.39,-26.35 -135.76,-110.69 -1103.14,-132.57 -1427.32,-172.07 -112.74,-13.74 -280.45,-38.57 -387.5,-76.54 -2.07,-0.74 -21.83,-8.49 -22.85,-9.02 -39.27,-20.56 -13.17,-5.12 -28.31,-20.05l32.36 -25.96 3.77 -66.61c-82.36,-37.23 -113.59,-46.07 -216.61,-41.34 -77.12,3.54 -156.45,19.04 -139.91,103.03 -15.22,6.31 -8.64,19.11 -46.67,-19.66 -20.57,43.08 1.5,33.04 -69.1,33.43l-1506.06 -1.12c4.17,-45.5 52.94,-43.67 -43.91,-24.03 -34.03,6.9 -76.07,14.55 -116.19,20.68 -82.5,12.59 -561.24,104.07 -626.06,139.02l-34.76 30.29c-69.07,-11.66 -131.83,-18.45 -197.3,-30.42 -126.71,-23.17 -157.89,-9.55 -182.96,-58.89 33.09,-12.11 13.88,-10.38 41.71,-7.01z"/>
  <path class="fil1 str1" d="M0.49 426.33l0 76.61c79.93,39.11 684.44,131.61 823.39,152.78 273.4,41.65 551.62,101.43 826.6,141.64l-13.13 51.46c52.52,-11.96 11.26,26.19 40.68,-41.22 85.24,3.1 264.46,39.55 348.86,55.32l718.99 126.28c124.68,22.13 250.96,47.85 372.97,54.01 124.82,6.31 270.03,-29.42 381.11,-46.5l1089.11 -190.87c-25.79,77.09 5.83,25.15 20.23,32.68l-10.32 -37.57 530.53 -86.77 64.98 -3.86c-48.45,-28.92 -10.14,-35.02 -70.87,-67.53 -63.31,0.51 -114,14.18 -182.39,26.35 -61.97,11.02 -122.55,16.8 -175.71,29.75 -22.64,-60.56 14.39,10.06 23.74,-20.77 1.08,-3.56 5.64,-1.93 8.11,-3.54l-175.94 -1.29c-10.88,-26.22 -8.98,12.21 5.39,-12.02 16.71,-28.18 14.75,18.56 4.9,-6.08l-2994.87 -1.91c-0.29,0.8 0.57,2.26 0.6,2.47l-0.6 20.04c-48.7,9.74 -128.37,2.43 -195.54,-2.95 -13.7,23.2 -17.51,-22.61 9.08,4.27 0.55,0.56 8.96,-5.55 2.04,2.78 -8.32,10.01 -649.96,-105.62 -729.32,-117.5 -114.16,-17.1 -247.24,-41.91 -359.78,-61.01l-264.26 -44.02c-12.97,-1.67 -28.98,-3.57 -41.05,-7.15 -5.17,-1.53 -24.14,-9.18 -26.71,-10.25l-18.95 -9.62c33.6,3.05 96.95,-12.07 143.56,-13.82l755.32 -101.55c43.93,-15 24,14.04 37.82,-29.78 -138.7,12.82 -878.43,104.53 -948.58,141.15z"/>
  <path class="fil0 str2" d="M949.07 285.19c-13.82,43.82 6.11,14.78 -37.82,29.78l-755.32 101.55c-27.84,-3.37 -8.62,-5.1 -41.71,7.01 25.07,49.35 56.25,35.72 182.96,58.89 65.47,11.97 128.24,18.76 197.3,30.42l34.76 -30.29c64.82,-34.95 543.56,-126.43 626.06,-139.02 40.11,-6.13 82.16,-13.78 116.19,-20.68 96.85,-19.64 48.08,-21.47 43.91,24.03l1506.06 1.12c70.6,-0.38 48.53,9.66 69.1,-33.43 38.04,38.78 31.46,25.97 46.67,19.66 -16.54,-84 62.79,-99.5 139.91,-103.03 103.02,-4.73 134.25,4.1 216.61,41.34l-3.77 66.61 27.06 5.94c29.12,-27.13 68.56,-2.08 116.75,4.03 32.39,4.1 87.55,-8.83 128.18,-13.9l60.53 -0.15c1.97,0.51 4.64,1.84 6.74,2.39 2.27,0.6 4.93,1.8 7.38,2.37 18.25,4.32 17.34,3.93 37.06,5.12 160.38,9.71 583.04,1.11 762.5,1.11 149.42,0 1138.68,16.15 1176.76,-1.64 -41.25,0.22 -520.64,-62.21 -538.68,-71.99 -80.91,0 -13.34,6.05 -34.45,-29.67l-498.69 -67.74c-365.6,-31.22 -1261.88,-213.9 -1557.28,-166.95 -323.31,51.39 -678.89,80.45 -1017,137.68 -146.98,24.88 -960.34,116.52 -1017.79,139.43z"/>
  <path class="fil2" d="M5123.62 642.79c60.73,32.51 22.41,38.61 70.87,67.53l-64.98 3.86c-12.54,59.31 47.1,181.83 -1.15,293.22 -32.87,75.89 -8.13,224.64 -7.18,314.8 2.35,223.68 0.7,445.71 0.34,669.4l-47.48 1286.4c39.44,24.81 27.36,22.85 77.89,40.81l92.13 0 2.27 -34.33 71.94 -8.2c10.21,-83.28 -9.89,-230.09 -12.7,-317.63 -3.44,-107.09 -5.33,-223.28 -12.17,-329.39 -21.88,-339.68 -32.95,-1151.96 -12.75,-1492.05 5.18,-87.27 -3.74,-84.62 -23.95,-150.18 -26.86,-87.14 21.39,-250.85 3.66,-295.29l-26.56 -25.42 -26.98 36.41c18.84,-23 23.93,-19.56 8.76,-53.75 -16.19,-36.46 -102.24,-68.43 -140.26,-79.84 -375.06,-112.53 -1361.76,-75.81 -1758.27,-224.07l-27.06 -5.94 -32.36 25.96c15.14,14.93 -10.96,-0.51 28.31,20.05 1.02,0.53 20.77,8.28 22.85,9.02 107.05,37.97 274.76,62.81 387.5,76.54 324.18,39.5 1291.56,61.38 1427.32,172.07z"/>
  <path class="fil0 str3" d="M3317.06 345.08c396.51,148.25 1383.21,111.54 1758.27,224.07 38.03,11.41 124.08,43.38 140.26,79.84 15.18,34.19 10.08,30.74 -8.76,53.75l26.98 -36.41 26.56 25.42c170.18,-29.17 930.41,-148.98 1031.99,-184.11l2.45 -86.93c-117.69,-31.71 -1095.42,-163.68 -1254.99,-177.94 21.1,35.72 -46.46,29.67 34.45,29.67 18.03,9.78 497.43,72.21 538.68,71.99 -38.08,17.79 -1027.34,1.64 -1176.76,1.64 -179.46,0 -602.12,8.6 -762.5,-1.11 -19.72,-1.19 -18.81,-0.8 -37.06,-5.12 -2.44,-0.58 -5.11,-1.78 -7.38,-2.37 -2.09,-0.55 -4.76,-1.88 -6.74,-2.39l-60.53 0.15c-40.64,5.06 -95.8,18 -128.18,13.9 -48.19,-6.11 -87.63,-31.17 -116.75,-4.03z"/>
 </g>
</svg>
